# xmcd
#
# Track frame offsets:
#	150
#	5554
#	40911
#	46958
#	75462
#	78685
#	107994
#	112377
#	135119
#	140925
#	170006
#	175157
#	202339
#	205433
#	234153
#	239144
#	262640
#	265042
#	287170
#	293660
#
# Disc length: 4309 seconds
#
# Revision: 0
# Processed by: cddbd v1.4PL0 Copyright (c) Steve Scherf et al.
# Submitted via: audiograbber 1.81.03
#
DISCID=2d10d314
DTITLE=Michael Messer - Play The Blues CD3
DYEAR=2003
DGENRE=Blues
TTITLE0=Lounge Lizard Blues (instrumental)
TTITLE1=Lounge Lizard Blues (backing)
TTITLE2=The Brit Blues (instrumental)
TTITLE3=The Brit Blues (backing)
TTITLE4=Beware of the Funk (instrumental)
TTITLE5=Beware of the Funk (backing)
TTITLE6=Yarbird (instrumental)
TTITLE7=Yarbird (backing)
TTITLE8=National Steel Blues (instrumental)
TTITLE9=National Steel Blues (backing)
TTITLE10=Unplugged G Shuffle (instrumental)
TTITLE11=Unplugged G Shuffle (backing)
TTITLE12=Beale and Maine Blues (instrumental)
TTITLE13=Beale and Maine Blues (backing)
TTITLE14=Latino Blues (instrumental)
TTITLE15=Latino Blues (backing)
TTITLE16=New Jersey Shuffle (instrumental)
TTITLE17=New Jersey Shuffle (backing)
TTITLE18=Deep South Blues (instrumental)
TTITLE19=Deep South Blues (backing)
EXTD=
EXTT0=
EXTT1=
EXTT2=
EXTT3=
EXTT4=
EXTT5=
EXTT6=
EXTT7=
EXTT8=
EXTT9=
EXTT10=
EXTT11=
EXTT12=
EXTT13=
EXTT14=
EXTT15=
EXTT16=
EXTT17=
EXTT18=
EXTT19=
PLAYORDER=
